<?xml version="1.0" standalone="no"?><!DOCTYPE svg PUBLIC "-//W3C//DTD SVG 1.1//EN" "http://www.w3.org/Graphics/SVG/1.1/DTD/svg11.dtd"><svg t="1492522807264" class="icon" style="" viewBox="0 0 1024 1024" version="1.1" xmlns="http://www.w3.org/2000/svg" p-id="1428" xmlns:xlink="http://www.w3.org/1999/xlink" width="200" height="200"><defs><style type="text/css"></style></defs><path d="M968.476376 573.820909c22.680466-26.161892 35.582221-69.372531 35.582221-110.535273 0-27.185841-5.887706-50.99265-17.048748-68.860557-14.540073-23.243638-37.783711-36.042998-65.430328-36.042998l-134.034898 0c72.956352-132.652567 91.387431-232.589971 54.781261-297.303535-25.547523-45.104945-72.341983-61.078546-104.698765-61.078546-12.79936 0-23.653217 9.471526-25.342733 22.168492-9.164342 67.529424-60.822559 148.114194-141.714514 221.070546-77.512924 69.884506-172.740163 125.740913-270.629669 159.224039-12.338583-26.0083-38.80766-44.029799-69.423729-44.029799l-153.59232 0c-42.340283 0-76.79616 34.455877-76.79616 76.79616l0 460.776961c0 42.340283 34.455877 76.79616 76.79616 76.79616l153.59232 0c32.459177 0 60.20819-20.222989 71.471626-48.739963 100.39818 12.59457 138.181891 32.766362 174.788061 52.323784 45.821709 24.472376 89.032348 47.613619 230.542073 47.613619 36.862157 0 71.574021-9.625119 97.787111-27.083446 25.59872-17.048748 41.981901-41.00915 47.40883-68.758162 20.427779-8.293985 38.551672-27.441828 52.426179-55.907605 13.516124-27.697815 22.270886-63.075246 22.270886-90.158692 0-5.068547-0.307185-9.727514-0.870356-14.028099 12.952952-9.522724 24.574771-24.216389 34.148693-43.569022 13.823309-27.902605 22.117294-62.870456 22.117294-93.486526 0-21.707715-4.044598-39.780411-11.980201-53.80851-0.665567-1.126344-1.331133-2.252687-1.9967-3.327834zM230.414079 921.553922l-153.59232 0c-14.130493 0-25.59872-11.468227-25.59872-25.59872l0-460.776961c0-14.130493 11.468227-25.59872 25.59872-25.59872l153.59232 0c14.130493 0 25.59872 11.468227 25.59872 25.59872l0 460.725764c0 0 0 0.051197 0 0.051197 0 14.130493-11.468227 25.59872-25.59872 25.59872zM938.935453 526.0025c-7.730813 15.564022-15.564022 21.19574-18.943053 21.19574-14.130493 0-25.59872 11.468227-25.59872 25.59872s11.468227 25.59872 25.59872 25.59872c2.150292 0 3.686216 0 5.9901 3.9934 3.379031 5.9901 5.324534 16.383181 5.324534 28.568172 0 22.782861-6.450877 49.866307-16.79276 70.754862-10.137093 20.427779-20.427779 27.851407-24.933153 27.851407-14.130493 0-25.59872 11.468227-25.59872 25.59872 0 9.061947 4.710164 17.048748 11.826609 21.60532 1.587121 16.229589-5.9901 59.645018-25.649918 87.957202-7.423629 10.700265-15.256837 16.843958-21.40053 16.843958-14.130493 0-25.59872 11.468227-25.59872 25.59872 0 45.053747-49.763912 65.583921-95.9952 65.583921-128.659167 0-164.702165-19.250237-206.428079-41.572321-39.012449-20.837358-82.837458-44.285786-193.577521-58.057897l0-419.153442c107.565822-35.275036 212.571771-96.097595 297.559522-172.688966 81.557522-73.519524 135.110044-152.977951 153.285136-226.59987 13.925704 4.454177 29.643318 13.874506 39.729214 31.640018 17.099945 30.20649 29.899305 107.309835-76.437778 284.504175-4.761362 7.884406-4.863757 17.765512-0.307185 25.80351s13.055347 13.00415 22.270886 13.00415l178.320684 0c10.188291 0 16.741563 3.583821 22.014899 11.980201 5.9901 9.573921 9.266737 24.421179 9.266737 41.725914 0 21.707715-5.222139 45.156142-13.925704 62.716864z" p-id="1429"></path></svg>