<?xml version="1.0" standalone="no"?><!DOCTYPE svg PUBLIC "-//W3C//DTD SVG 1.1//EN" "http://www.w3.org/Graphics/SVG/1.1/DTD/svg11.dtd"><svg t="1492525312170" class="icon" style="" viewBox="0 0 1025 1024" version="1.1" xmlns="http://www.w3.org/2000/svg" p-id="3083" xmlns:xlink="http://www.w3.org/1999/xlink" width="200.1953125" height="200"><defs><style type="text/css"></style></defs><path d="M414.937179 601.948583c0 60.906282 49.31938 75.404919 103.201477 75.404919 35.301029 0 89.183127-13.958315 89.183127-60.786211 0-49.379415-68.650896-65.138803-136.011022-83.089497-67.990502-17.950693-136.61138-36.861959-136.61138-122.803154 0-93.655791 88.522733-138.562542 171.282033-138.562542 95.546918 0 183.439275 41.694838 183.439275 147.537889L602.969191 419.649987c-3.181895-55.142849-53.43183-72.973471-101.550494-72.973471-32.059098 0-84.080087 17.170228-84.080087 55.653153 0 35.271011 36.621816 50.850292 151.410196 80.357869 33.349867 8.344971 121.182189 18.400962 121.182189 122.29285 0 84.050069-51.240524 146.907513-175.694662 146.907513-101.340369 0-185.180312-37.072084-183.889544-149.939319l86.391464 0L414.937179 601.948583zM540.171782 310.354879c0 7.774631-6.303755 14.048369-14.048369 14.048369l-29.597631 0c-7.774631 0-14.048369-6.273737-14.048369-14.048369l0-83.74989c0-7.774631 6.273737-14.048369 14.048369-14.048369l29.597631 0c7.744613 0 14.048369 6.273737 14.048369 14.048369l1.861109 83.74989L540.171782 310.354879zM538.280655 797.845279c0 7.774631-6.273737 14.078387-14.048369 14.078387l-27.736523 0c-7.774631 0-14.048369-6.303755-14.048369-14.078387l0-85.610999c0-7.774631 6.273737-14.048369 14.048369-14.048369l27.736523 0c7.774631 0 14.048369 6.273737 14.048369 14.048369l1.861109 83.74989L538.280655 797.845279zM512.015009 0C229.246563 0 0 229.246563 0 512.015009S229.246563 1024 512.015009 1024s512.015009-229.246563 512.015009-512.015009S794.783455 0 512.015009 0L512.015009 0zM511.444669 929.743851c-230.057046 0-432.137426-178.246182-432.137426-417.428664 0-239.182482 193.885498-433.06798 433.097998-433.06798 239.152464 0 433.06798 193.885498 433.06798 433.06798C945.473221 751.49767 741.501715 929.743851 511.444669 929.743851L511.444669 929.743851zM512.405241 945.383168" p-id="3084"></path></svg>