<?xml version="1.0" standalone="no"?><!DOCTYPE svg PUBLIC "-//W3C//DTD SVG 1.1//EN" "http://www.w3.org/Graphics/SVG/1.1/DTD/svg11.dtd"><svg t="1492526831464" class="icon" style="" viewBox="0 0 1024 1024" version="1.1" xmlns="http://www.w3.org/2000/svg" p-id="2378" xmlns:xlink="http://www.w3.org/1999/xlink" width="200" height="200"><defs><style type="text/css"></style></defs><path d="M510.650771 65.491597c-246.970858 0-447.184809 200.197578-447.184809 447.184809 0 246.970858 200.213951 447.184809 447.184809 447.184809s447.184809-200.213951 447.184809-447.184809C957.835579 265.689175 757.620605 65.491597 510.650771 65.491597zM510.650771 895.977231c-211.692377 0-383.300826-171.606403-383.300826-383.300826 0-211.692377 171.608449-383.300826 383.300826-383.300826 211.691353 0 383.301849 171.609473 383.301849 383.300826C893.95262 724.369805 722.342124 895.977231 510.650771 895.977231z" p-id="2379"></path><path d="M542.590204 225.200018 478.710314 225.200018 478.710314 480.733902 478.710314 544.617885 671.356916 596.226287 703.297372 540.90533 542.590204 497.849722Z" p-id="2380"></path></svg>